<?xml version="1.0" encoding="UTF-8" standalone="no"?>
<!-- Created with Inkscape (http://www.inkscape.org/) -->

<svg
   xmlns:dc="http://purl.org/dc/elements/1.1/"
   xmlns:cc="http://creativecommons.org/ns#"
   xmlns:rdf="http://www.w3.org/1999/02/22-rdf-syntax-ns#"
   xmlns:svg="http://www.w3.org/2000/svg"
   xmlns="http://www.w3.org/2000/svg"
   xmlns:sodipodi="http://sodipodi.sourceforge.net/DTD/sodipodi-0.dtd"
   xmlns:inkscape="http://www.inkscape.org/namespaces/inkscape"
   width="744.09448819"
   height="1052.3622047"
   id="svg2"
   version="1.1"
   inkscape:version="0.48.2 r9819"
   sodipodi:docname="logo.svg">
  <defs
     id="defs4">
    <filter
       id="filter3015"
       inkscape:label="Invert"
       x="0"
       y="0"
       width="1"
       height="1"
       inkscape:menu="Color"
       inkscape:menu-tooltip="Invert colors"
       color-interpolation-filters="sRGB">
      <feColorMatrix
         id="feColorMatrix3017"
         type="saturate"
         values="1"
         result="fbSourceGraphic" />
      <feColorMatrix
         id="feColorMatrix3019"
         in="fbSourceGraphic"
         values="-1 0 0 0 1 0 -1 0 0 1 0 0 -1 0 1 0 0 0 1 0 " />
    </filter>
    <filter
       id="filter3098"
       inkscape:label="Invert"
       x="0"
       y="0"
       width="1"
       height="1"
       inkscape:menu="Color"
       inkscape:menu-tooltip="Invert colors"
       color-interpolation-filters="sRGB">
      <feColorMatrix
         id="feColorMatrix3100"
         type="saturate"
         values="1"
         result="fbSourceGraphic" />
      <feColorMatrix
         id="feColorMatrix3102"
         in="fbSourceGraphic"
         values="-1 0 0 0 1 0 -1 0 0 1 0 0 -1 0 1 0 0 0 1 0 " />
    </filter>
  </defs>
  <sodipodi:namedview
     id="base"
     pagecolor="#ffffff"
     bordercolor="#666666"
     borderopacity="1.0"
     inkscape:pageopacity="0.0"
     inkscape:pageshadow="2"
     inkscape:zoom="0.9899495"
     inkscape:cx="180.01608"
     inkscape:cy="910.45916"
     inkscape:document-units="px"
     inkscape:current-layer="layer1"
     showgrid="false"
     inkscape:window-width="1024"
     inkscape:window-height="719"
     inkscape:window-x="-4"
     inkscape:window-y="-4"
     inkscape:window-maximized="1" />
  <metadata
     id="metadata7">
    <rdf:RDF>
      <cc:Work
         rdf:about="">
        <dc:format>image/svg+xml</dc:format>
        <dc:type
           rdf:resource="http://purl.org/dc/dcmitype/StillImage" />
        <dc:title></dc:title>
      </cc:Work>
    </rdf:RDF>
  </metadata>
  <g
     inkscape:label="Layer 1"
     inkscape:groupmode="layer"
     id="layer1">
    <g
       id="g3224"
       transform="translate(21.718279,-77.781746)"
       style="fill:#002147;fill-opacity:1">
      <path
         style="fill:#002147;fill-opacity:1"
         d="m 160.54353,251.92589 2.34863,-2.5 11.62568,0 11.62569,0 1.2,-1.2 1.2,-1.2 0,-33.22308 0,-33.22307 -3.07692,-3.07693 -3.07693,-3.07692 -9.42307,0 -9.42308,0 0,2.875 0,2.875 2.77585,0.55517 c 1.52672,0.30534 5.35172,1.51893 8.5,2.69685 l 5.72415,2.14168 0,26.72815 0,26.72815 1.2,1.2 1.2,1.2 -20.4,0 -20.4,0 1.2,-1.2 1.2,-1.2 0,-26.72815 0,-26.72815 5.72415,-2.14168 c 3.14828,-1.17792 6.97328,-2.39151 8.5,-2.69685 l 2.77585,-0.55517 0,-2.875 0,-2.875 -1.37756,0 c -0.75765,0 -1.93775,-0.675 -2.62244,-1.5 l -1.24489,-1.5 1.24489,-1.5 1.24489,-1.5 11.98364,0 11.98363,0 1.9665,-2.5 c 1.08157,-1.375 2.66509,-2.5 3.51892,-2.5 l 1.55242,0 -0.57083,-2.85417 -0.57084,-2.85416 1.10345,-1.10346 1.10346,-1.10345 -1.30836,-1.57647 -1.30835,-1.57647 1.30147,-2.43182 1.30147,-2.43182 -1.27318,-1.53409 -1.27318,-1.53409 1.30814,-1.57621 1.30815,-1.57622 -1.4357,-0.94208 -1.4357,-0.94208 1.75,-1.0314 c 0.9625,-0.56726 1.75,-1.90903 1.75,-2.9817 0,-1.07267 0.45,-1.95031 1,-1.95031 0.55,0 1,0.87764 1,1.95031 0,1.07267 0.7875,2.41444 1.75,2.9817 l 1.75,1.0314 -1.4357,0.94208 -1.4357,0.94208 1.30815,1.57622 1.30814,1.57621 -1.27318,1.53409 -1.27318,1.53409 1.30147,2.43182 1.30147,2.43182 -1.30835,1.57647 -1.30836,1.57647 1.10345,1.10346 1.10346,1.10345 -0.57084,2.85416 -0.57083,2.85417 1.55242,0 c 0.85383,0 2.43734,1.125 3.51892,2.5 l 1.9665,2.5 11.98363,0 11.98364,0 1.24489,1.5 1.24489,1.5 -1.24489,1.5 c -0.68469,0.825 -1.86479,1.5 -2.62245,1.5 l -1.37755,0 0,2.875 0,2.875 2.77585,0.55517 c 1.52672,0.30534 5.35172,1.51893 8.5,2.69685 l 5.72415,2.14168 0,26.72815 0,26.72815 1.2,1.2 1.2,1.2 -20.4,0 -20.4,0 1.2,-1.2 1.2,-1.2 0,-26.72815 0,-26.72815 5.72415,-2.14168 c 3.14828,-1.17792 6.97328,-2.39151 8.5,-2.69685 l 2.77585,-0.55517 0,-2.875 0,-2.875 -9.42308,0 -9.42307,0 -3.07693,3.07692 -3.07692,3.07693 0,33.22307 0,33.22308 1.2,1.2 1.2,1.2 11.62569,0 11.62568,0 2.34863,2.5 2.34863,2.5 -34.34863,0 -34.34863,0 2.34863,-2.5 z m 18,-38.87033 0,-26.37033 -7.40737,-2.62967 c -4.07405,-1.44632 -7.94074,-2.62967 -8.59263,-2.62967 -0.65189,0 -4.51858,1.18335 -8.59263,2.62967 l -7.40737,2.62967 0,26.37033 0,26.37033 16,0 16,0 0,-26.37033 z m 60,0 0,-26.37033 -7.40737,-2.62967 c -4.07405,-1.44632 -7.94074,-2.62967 -8.59263,-2.62967 -0.65189,0 -4.51858,1.18335 -8.59263,2.62967 l -7.40737,2.62967 0,26.37033 0,26.37033 16,0 16,0 0,-26.37033 z"
         id="path3240"
         inkscape:connector-curvature="0" />
      <path
         style="fill:#002147;fill-opacity:1"
         d="m 160.54353,251.92589 2.34863,-2.5 11.62568,0 11.62569,0 1.2,-1.2 1.2,-1.2 0,-33.22308 0,-33.22307 -3.07692,-3.07693 -3.07693,-3.07692 -9.42307,0 -9.42308,0 0,2.875 0,2.875 2.77585,0.55517 c 1.52672,0.30534 5.35172,1.51893 8.5,2.69685 l 5.72415,2.14168 0,26.72815 0,26.72815 1.2,1.2 1.2,1.2 -20.4,0 -20.4,0 1.2,-1.2 1.2,-1.2 0,-26.72815 0,-26.72815 5.72415,-2.14168 c 3.14828,-1.17792 6.97328,-2.39151 8.5,-2.69685 l 2.77585,-0.55517 0,-2.875 0,-2.875 -1.37756,0 c -0.75765,0 -1.93775,-0.675 -2.62244,-1.5 l -1.24489,-1.5 1.24489,-1.5 1.24489,-1.5 11.98364,0 11.98363,0 1.9665,-2.5 c 1.08157,-1.375 2.66509,-2.5 3.51892,-2.5 l 1.55242,0 -0.57083,-2.85417 -0.57084,-2.85416 1.10345,-1.10346 1.10346,-1.10345 -1.30836,-1.57647 -1.30835,-1.57647 1.30147,-2.43182 1.30147,-2.43182 -1.27318,-1.53409 -1.27318,-1.53409 1.30814,-1.57621 1.30815,-1.57622 -1.4357,-0.94208 -1.4357,-0.94208 1.75,-1.0314 c 0.9625,-0.56726 1.75,-1.90903 1.75,-2.9817 0,-1.07267 0.45,-1.95031 1,-1.95031 0.55,0 1,0.87764 1,1.95031 0,1.07267 0.7875,2.41444 1.75,2.9817 l 1.75,1.0314 -1.4357,0.94208 -1.4357,0.94208 1.30815,1.57622 1.30814,1.57621 -1.27318,1.53409 -1.27318,1.53409 1.30147,2.43182 1.30147,2.43182 -1.30835,1.57647 -1.30836,1.57647 1.10345,1.10346 1.10346,1.10345 -0.57084,2.85416 -0.57083,2.85417 1.55242,0 c 0.85383,0 2.43734,1.125 3.51892,2.5 l 1.9665,2.5 11.98363,0 11.98364,0 1.24489,1.5 1.24489,1.5 -1.24489,1.5 c -0.68469,0.825 -1.86479,1.5 -2.62245,1.5 l -1.37755,0 0,2.875 0,2.875 2.77585,0.55517 c 1.52672,0.30534 5.35172,1.51893 8.5,2.69685 l 5.72415,2.14168 0,26.72815 0,26.72815 1.2,1.2 1.2,1.2 -20.4,0 -20.4,0 1.2,-1.2 1.2,-1.2 0,-26.72815 0,-26.72815 5.72415,-2.14168 c 3.14828,-1.17792 6.97328,-2.39151 8.5,-2.69685 l 2.77585,-0.55517 0,-2.875 0,-2.875 -9.42308,0 -9.42307,0 -3.07693,3.07692 -3.07692,3.07693 0,33.22307 0,33.22308 1.2,1.2 1.2,1.2 11.62569,0 11.62568,0 2.34863,2.5 2.34863,2.5 -34.34863,0 -34.34863,0 2.34863,-2.5 z m 18,-38.87033 0,-26.37033 -7.40737,-2.62967 c -4.07405,-1.44632 -7.94074,-2.62967 -8.59263,-2.62967 -0.65189,0 -4.51858,1.18335 -8.59263,2.62967 l -7.40737,2.62967 0,26.37033 0,26.37033 16,0 16,0 0,-26.37033 z m 60,0 0,-26.37033 -7.40737,-2.62967 c -4.07405,-1.44632 -7.94074,-2.62967 -8.59263,-2.62967 -0.65189,0 -4.51858,1.18335 -8.59263,2.62967 l -7.40737,2.62967 0,26.37033 0,26.37033 16,0 16,0 0,-26.37033 z"
         id="path3238"
         inkscape:connector-curvature="0" />
      <path
         style="fill:#002147;fill-opacity:1"
         d="m 160.54353,251.92589 2.34863,-2.5 11.62568,0 11.62569,0 1.2,-1.2 1.2,-1.2 0,-33.22308 0,-33.22307 -3.07692,-3.07693 -3.07693,-3.07692 -9.42307,0 -9.42308,0 0,2.875 0,2.875 2.77585,0.55517 c 1.52672,0.30534 5.35172,1.51893 8.5,2.69685 l 5.72415,2.14168 0,26.72815 0,26.72815 1.2,1.2 1.2,1.2 -20.4,0 -20.4,0 1.2,-1.2 1.2,-1.2 0,-26.72815 0,-26.72815 5.72415,-2.14168 c 3.14828,-1.17792 6.97328,-2.39151 8.5,-2.69685 l 2.77585,-0.55517 0,-2.875 0,-2.875 -1.37756,0 c -0.75765,0 -1.93775,-0.675 -2.62244,-1.5 l -1.24489,-1.5 1.24489,-1.5 1.24489,-1.5 11.98364,0 11.98363,0 1.9665,-2.5 c 1.08157,-1.375 2.66509,-2.5 3.51892,-2.5 l 1.55242,0 -0.57083,-2.85417 -0.57084,-2.85416 1.10345,-1.10346 1.10346,-1.10345 -1.30836,-1.57647 -1.30835,-1.57647 1.30147,-2.43182 1.30147,-2.43182 -1.27318,-1.53409 -1.27318,-1.53409 1.30814,-1.57621 1.30815,-1.57622 -1.4357,-0.94208 -1.4357,-0.94208 1.75,-1.0314 c 0.9625,-0.56726 1.75,-1.90903 1.75,-2.9817 0,-1.07267 0.45,-1.95031 1,-1.95031 0.55,0 1,0.87764 1,1.95031 0,1.07267 0.7875,2.41444 1.75,2.9817 l 1.75,1.0314 -1.4357,0.94208 -1.4357,0.94208 1.30815,1.57622 1.30814,1.57621 -1.27318,1.53409 -1.27318,1.53409 1.30147,2.43182 1.30147,2.43182 -1.30835,1.57647 -1.30836,1.57647 1.10345,1.10346 1.10346,1.10345 -0.57084,2.85416 -0.57083,2.85417 1.55242,0 c 0.85383,0 2.43734,1.125 3.51892,2.5 l 1.9665,2.5 11.98363,0 11.98364,0 1.24489,1.5 1.24489,1.5 -1.24489,1.5 c -0.68469,0.825 -1.86479,1.5 -2.62245,1.5 l -1.37755,0 0,2.875 0,2.875 2.77585,0.55517 c 1.52672,0.30534 5.35172,1.51893 8.5,2.69685 l 5.72415,2.14168 0,26.72815 0,26.72815 1.2,1.2 1.2,1.2 -20.4,0 -20.4,0 1.2,-1.2 1.2,-1.2 0,-26.72815 0,-26.72815 5.72415,-2.14168 c 3.14828,-1.17792 6.97328,-2.39151 8.5,-2.69685 l 2.77585,-0.55517 0,-2.875 0,-2.875 -9.42308,0 -9.42307,0 -3.07693,3.07692 -3.07692,3.07693 0,33.22307 0,33.22308 1.2,1.2 1.2,1.2 11.62569,0 11.62568,0 2.34863,2.5 2.34863,2.5 -34.34863,0 -34.34863,0 2.34863,-2.5 z m 18,-38.87033 0,-26.37033 -7.40737,-2.62967 c -4.07405,-1.44632 -7.94074,-2.62967 -8.59263,-2.62967 -0.65189,0 -4.51858,1.18335 -8.59263,2.62967 l -7.40737,2.62967 0,26.37033 0,26.37033 16,0 16,0 0,-26.37033 z m 60,0 0,-26.37033 -7.40737,-2.62967 c -4.07405,-1.44632 -7.94074,-2.62967 -8.59263,-2.62967 -0.65189,0 -4.51858,1.18335 -8.59263,2.62967 l -7.40737,2.62967 0,26.37033 0,26.37033 16,0 16,0 0,-26.37033 z"
         id="path3236"
         inkscape:connector-curvature="0" />
      <path
         style="fill:#002147;fill-opacity:1"
         d="m 160.54353,251.92589 2.34863,-2.5 11.62568,0 11.62569,0 1.2,-1.2 1.2,-1.2 0,-33.22308 0,-33.22307 -3.07692,-3.07693 -3.07693,-3.07692 -9.42307,0 -9.42308,0 0,2.875 0,2.875 2.77585,0.55517 c 1.52672,0.30534 5.35172,1.51893 8.5,2.69685 l 5.72415,2.14168 0,26.72815 0,26.72815 1.2,1.2 1.2,1.2 -20.4,0 -20.4,0 1.2,-1.2 1.2,-1.2 0,-26.72815 0,-26.72815 5.72415,-2.14168 c 3.14828,-1.17792 6.97328,-2.39151 8.5,-2.69685 l 2.77585,-0.55517 0,-2.875 0,-2.875 -1.37756,0 c -0.75765,0 -1.93775,-0.675 -2.62244,-1.5 l -1.24489,-1.5 1.24489,-1.5 1.24489,-1.5 11.98364,0 11.98363,0 1.9665,-2.5 c 1.08157,-1.375 2.66509,-2.5 3.51892,-2.5 l 1.55242,0 -0.57083,-2.85417 -0.57084,-2.85416 1.10345,-1.10346 1.10346,-1.10345 -1.30836,-1.57647 -1.30835,-1.57647 1.30147,-2.43182 1.30147,-2.43182 -1.27318,-1.53409 -1.27318,-1.53409 1.30814,-1.57621 1.30815,-1.57622 -1.4357,-0.94208 -1.4357,-0.94208 1.75,-1.0314 c 0.9625,-0.56726 1.75,-1.90903 1.75,-2.9817 0,-1.07267 0.45,-1.95031 1,-1.95031 0.55,0 1,0.87764 1,1.95031 0,1.07267 0.7875,2.41444 1.75,2.9817 l 1.75,1.0314 -1.4357,0.94208 -1.4357,0.94208 1.30815,1.57622 1.30814,1.57621 -1.27318,1.53409 -1.27318,1.53409 1.30147,2.43182 1.30147,2.43182 -1.30835,1.57647 -1.30836,1.57647 1.10345,1.10346 1.10346,1.10345 -0.57084,2.85416 -0.57083,2.85417 1.55242,0 c 0.85383,0 2.43734,1.125 3.51892,2.5 l 1.9665,2.5 11.98363,0 11.98364,0 1.24489,1.5 1.24489,1.5 -1.24489,1.5 c -0.68469,0.825 -1.86479,1.5 -2.62245,1.5 l -1.37755,0 0,2.875 0,2.875 2.77585,0.55517 c 1.52672,0.30534 5.35172,1.51893 8.5,2.69685 l 5.72415,2.14168 0,26.72815 0,26.72815 1.2,1.2 1.2,1.2 -20.4,0 -20.4,0 1.2,-1.2 1.2,-1.2 0,-26.72815 0,-26.72815 5.72415,-2.14168 c 3.14828,-1.17792 6.97328,-2.39151 8.5,-2.69685 l 2.77585,-0.55517 0,-2.875 0,-2.875 -9.42308,0 -9.42307,0 -3.07693,3.07692 -3.07692,3.07693 0,33.22307 0,33.22308 1.2,1.2 1.2,1.2 11.62569,0 11.62568,0 2.34863,2.5 2.34863,2.5 -34.34863,0 -34.34863,0 2.34863,-2.5 z m 18,-38.87033 0,-26.37033 -7.40737,-2.62967 c -4.07405,-1.44632 -7.94074,-2.62967 -8.59263,-2.62967 -0.65189,0 -4.51858,1.18335 -8.59263,2.62967 l -7.40737,2.62967 0,26.37033 0,26.37033 16,0 16,0 0,-26.37033 z m 60,0 0,-26.37033 -7.40737,-2.62967 c -4.07405,-1.44632 -7.94074,-2.62967 -8.59263,-2.62967 -0.65189,0 -4.51858,1.18335 -8.59263,2.62967 l -7.40737,2.62967 0,26.37033 0,26.37033 16,0 16,0 0,-26.37033 z"
         id="path3234"
         inkscape:connector-curvature="0" />
      <path
         style="fill:#002147;fill-opacity:1"
         d="m 160.54353,251.92589 2.34863,-2.5 11.62568,0 11.62569,0 1.2,-1.2 1.2,-1.2 0,-33.22308 0,-33.22307 -3.07692,-3.07693 -3.07693,-3.07692 -9.42307,0 -9.42308,0 0,2.875 0,2.875 2.77585,0.55517 c 1.52672,0.30534 5.35172,1.51893 8.5,2.69685 l 5.72415,2.14168 0,26.72815 0,26.72815 1.2,1.2 1.2,1.2 -20.4,0 -20.4,0 1.2,-1.2 1.2,-1.2 0,-26.72815 0,-26.72815 5.72415,-2.14168 c 3.14828,-1.17792 6.97328,-2.39151 8.5,-2.69685 l 2.77585,-0.55517 0,-2.875 0,-2.875 -1.37756,0 c -0.75765,0 -1.93775,-0.675 -2.62244,-1.5 l -1.24489,-1.5 1.24489,-1.5 1.24489,-1.5 11.98364,0 11.98363,0 1.9665,-2.5 c 1.08157,-1.375 2.66509,-2.5 3.51892,-2.5 l 1.55242,0 -0.57083,-2.85417 -0.57084,-2.85416 1.10345,-1.10346 1.10346,-1.10345 -1.30836,-1.57647 -1.30835,-1.57647 1.30147,-2.43182 1.30147,-2.43182 -1.27318,-1.53409 -1.27318,-1.53409 1.30814,-1.57621 1.30815,-1.57622 -1.4357,-0.94208 -1.4357,-0.94208 1.75,-1.0314 c 0.9625,-0.56726 1.75,-1.90903 1.75,-2.9817 0,-1.07267 0.45,-1.95031 1,-1.95031 0.55,0 1,0.87764 1,1.95031 0,1.07267 0.7875,2.41444 1.75,2.9817 l 1.75,1.0314 -1.4357,0.94208 -1.4357,0.94208 1.30815,1.57622 1.30814,1.57621 -1.27318,1.53409 -1.27318,1.53409 1.30147,2.43182 1.30147,2.43182 -1.30835,1.57647 -1.30836,1.57647 1.10345,1.10346 1.10346,1.10345 -0.57084,2.85416 -0.57083,2.85417 1.55242,0 c 0.85383,0 2.43734,1.125 3.51892,2.5 l 1.9665,2.5 11.98363,0 11.98364,0 1.24489,1.5 1.24489,1.5 -1.24489,1.5 c -0.68469,0.825 -1.86479,1.5 -2.62245,1.5 l -1.37755,0 0,2.875 0,2.875 2.77585,0.55517 c 1.52672,0.30534 5.35172,1.51893 8.5,2.69685 l 5.72415,2.14168 0,26.72815 0,26.72815 1.2,1.2 1.2,1.2 -20.4,0 -20.4,0 1.2,-1.2 1.2,-1.2 0,-26.72815 0,-26.72815 5.72415,-2.14168 c 3.14828,-1.17792 6.97328,-2.39151 8.5,-2.69685 l 2.77585,-0.55517 0,-2.875 0,-2.875 -9.42308,0 -9.42307,0 -3.07693,3.07692 -3.07692,3.07693 0,33.22307 0,33.22308 1.2,1.2 1.2,1.2 11.62569,0 11.62568,0 2.34863,2.5 2.34863,2.5 -34.34863,0 -34.34863,0 2.34863,-2.5 z m 18,-38.87033 0,-26.37033 -7.40737,-2.62967 c -4.07405,-1.44632 -7.94074,-2.62967 -8.59263,-2.62967 -0.65189,0 -4.51858,1.18335 -8.59263,2.62967 l -7.40737,2.62967 0,26.37033 0,26.37033 16,0 16,0 0,-26.37033 z m 60,0 0,-26.37033 -7.40737,-2.62967 c -4.07405,-1.44632 -7.94074,-2.62967 -8.59263,-2.62967 -0.65189,0 -4.51858,1.18335 -8.59263,2.62967 l -7.40737,2.62967 0,26.37033 0,26.37033 16,0 16,0 0,-26.37033 z"
         id="path3232"
         inkscape:connector-curvature="0" />
      <path
         style="fill:#002147;fill-opacity:1"
         d="m 160.54353,251.92589 2.34863,-2.5 11.62568,0 11.62569,0 1.2,-1.2 1.2,-1.2 0,-33.22308 0,-33.22307 -3.07692,-3.07693 -3.07693,-3.07692 -9.42307,0 -9.42308,0 0,2.875 0,2.875 2.77585,0.55517 c 1.52672,0.30534 5.35172,1.51893 8.5,2.69685 l 5.72415,2.14168 0,26.72815 0,26.72815 1.2,1.2 1.2,1.2 -20.4,0 -20.4,0 1.2,-1.2 1.2,-1.2 0,-26.72815 0,-26.72815 5.72415,-2.14168 c 3.14828,-1.17792 6.97328,-2.39151 8.5,-2.69685 l 2.77585,-0.55517 0,-2.875 0,-2.875 -1.37756,0 c -0.75765,0 -1.93775,-0.675 -2.62244,-1.5 l -1.24489,-1.5 1.24489,-1.5 1.24489,-1.5 11.98364,0 11.98363,0 1.9665,-2.5 c 1.08157,-1.375 2.66509,-2.5 3.51892,-2.5 l 1.55242,0 -0.57083,-2.85417 -0.57084,-2.85416 1.10345,-1.10346 1.10346,-1.10345 -1.30836,-1.57647 -1.30835,-1.57647 1.30147,-2.43182 1.30147,-2.43182 -1.27318,-1.53409 -1.27318,-1.53409 1.30814,-1.57621 1.30815,-1.57622 -1.4357,-0.94208 -1.4357,-0.94208 1.75,-1.0314 c 0.9625,-0.56726 1.75,-1.90903 1.75,-2.9817 0,-1.07267 0.45,-1.95031 1,-1.95031 0.55,0 1,0.87764 1,1.95031 0,1.07267 0.7875,2.41444 1.75,2.9817 l 1.75,1.0314 -1.4357,0.94208 -1.4357,0.94208 1.30815,1.57622 1.30814,1.57621 -1.27318,1.53409 -1.27318,1.53409 1.30147,2.43182 1.30147,2.43182 -1.30835,1.57647 -1.30836,1.57647 1.10345,1.10346 1.10346,1.10345 -0.57084,2.85416 -0.57083,2.85417 1.55242,0 c 0.85383,0 2.43734,1.125 3.51892,2.5 l 1.9665,2.5 11.98363,0 11.98364,0 1.24489,1.5 1.24489,1.5 -1.24489,1.5 c -0.68469,0.825 -1.86479,1.5 -2.62245,1.5 l -1.37755,0 0,2.875 0,2.875 2.77585,0.55517 c 1.52672,0.30534 5.35172,1.51893 8.5,2.69685 l 5.72415,2.14168 0,26.72815 0,26.72815 1.2,1.2 1.2,1.2 -20.4,0 -20.4,0 1.2,-1.2 1.2,-1.2 0,-26.72815 0,-26.72815 5.72415,-2.14168 c 3.14828,-1.17792 6.97328,-2.39151 8.5,-2.69685 l 2.77585,-0.55517 0,-2.875 0,-2.875 -9.42308,0 -9.42307,0 -3.07693,3.07692 -3.07692,3.07693 0,33.22307 0,33.22308 1.2,1.2 1.2,1.2 11.62569,0 11.62568,0 2.34863,2.5 2.34863,2.5 -34.34863,0 -34.34863,0 2.34863,-2.5 z m 18,-38.87033 0,-26.37033 -7.40737,-2.62967 c -4.07405,-1.44632 -7.94074,-2.62967 -8.59263,-2.62967 -0.65189,0 -4.51858,1.18335 -8.59263,2.62967 l -7.40737,2.62967 0,26.37033 0,26.37033 16,0 16,0 0,-26.37033 z m 60,0 0,-26.37033 -7.40737,-2.62967 c -4.07405,-1.44632 -7.94074,-2.62967 -8.59263,-2.62967 -0.65189,0 -4.51858,1.18335 -8.59263,2.62967 l -7.40737,2.62967 0,26.37033 0,26.37033 16,0 16,0 0,-26.37033 z"
         id="path3230"
         inkscape:connector-curvature="0" />
      <path
         style="fill:#002147;fill-opacity:1"
         d="m 160.54353,251.92589 2.34863,-2.5 11.62568,0 11.62569,0 1.2,-1.2 1.2,-1.2 0,-33.22308 0,-33.22307 -3.07692,-3.07693 -3.07693,-3.07692 -9.42307,0 -9.42308,0 0,2.875 0,2.875 2.77585,0.55517 c 1.52672,0.30534 5.35172,1.51893 8.5,2.69685 l 5.72415,2.14168 0,26.72815 0,26.72815 1.2,1.2 1.2,1.2 -20.4,0 -20.4,0 1.2,-1.2 1.2,-1.2 0,-26.72815 0,-26.72815 5.72415,-2.14168 c 3.14828,-1.17792 6.97328,-2.39151 8.5,-2.69685 l 2.77585,-0.55517 0,-2.875 0,-2.875 -1.37756,0 c -0.75765,0 -1.93775,-0.675 -2.62244,-1.5 l -1.24489,-1.5 1.24489,-1.5 1.24489,-1.5 11.98364,0 11.98363,0 1.9665,-2.5 c 1.08157,-1.375 2.66509,-2.5 3.51892,-2.5 l 1.55242,0 -0.57083,-2.85417 -0.57084,-2.85416 1.10345,-1.10346 1.10346,-1.10345 -1.30836,-1.57647 -1.30835,-1.57647 1.30147,-2.43182 1.30147,-2.43182 -1.27318,-1.53409 -1.27318,-1.53409 1.30814,-1.57621 1.30815,-1.57622 -1.4357,-0.94208 -1.4357,-0.94208 1.75,-1.0314 c 0.9625,-0.56726 1.75,-1.90903 1.75,-2.9817 0,-1.07267 0.45,-1.95031 1,-1.95031 0.55,0 1,0.87764 1,1.95031 0,1.07267 0.7875,2.41444 1.75,2.9817 l 1.75,1.0314 -1.4357,0.94208 -1.4357,0.94208 1.30815,1.57622 1.30814,1.57621 -1.27318,1.53409 -1.27318,1.53409 1.30147,2.43182 1.30147,2.43182 -1.30835,1.57647 -1.30836,1.57647 1.10345,1.10346 1.10346,1.10345 -0.57084,2.85416 -0.57083,2.85417 1.55242,0 c 0.85383,0 2.43734,1.125 3.51892,2.5 l 1.9665,2.5 11.98363,0 11.98364,0 1.24489,1.5 1.24489,1.5 -1.24489,1.5 c -0.68469,0.825 -1.86479,1.5 -2.62245,1.5 l -1.37755,0 0,2.875 0,2.875 2.77585,0.55517 c 1.52672,0.30534 5.35172,1.51893 8.5,2.69685 l 5.72415,2.14168 0,26.72815 0,26.72815 1.2,1.2 1.2,1.2 -20.4,0 -20.4,0 1.2,-1.2 1.2,-1.2 0,-26.72815 0,-26.72815 5.72415,-2.14168 c 3.14828,-1.17792 6.97328,-2.39151 8.5,-2.69685 l 2.77585,-0.55517 0,-2.875 0,-2.875 -9.42308,0 -9.42307,0 -3.07693,3.07692 -3.07692,3.07693 0,33.22307 0,33.22308 1.2,1.2 1.2,1.2 11.62569,0 11.62568,0 2.34863,2.5 2.34863,2.5 -34.34863,0 -34.34863,0 2.34863,-2.5 z m 18,-38.87033 0,-26.37033 -7.40737,-2.62967 c -4.07405,-1.44632 -7.94074,-2.62967 -8.59263,-2.62967 -0.65189,0 -4.51858,1.18335 -8.59263,2.62967 l -7.40737,2.62967 0,26.37033 0,26.37033 16,0 16,0 0,-26.37033 z m 60,0 0,-26.37033 -7.40737,-2.62967 c -4.07405,-1.44632 -7.94074,-2.62967 -8.59263,-2.62967 -0.65189,0 -4.51858,1.18335 -8.59263,2.62967 l -7.40737,2.62967 0,26.37033 0,26.37033 16,0 16,0 0,-26.37033 z"
         id="path3228"
         inkscape:connector-curvature="0" />
      <path
         style="fill:#002147;fill-opacity:1"
         d="m 160.54353,251.92589 2.34863,-2.5 11.62568,0 11.62569,0 1.2,-1.2 1.2,-1.2 0,-33.22308 0,-33.22307 -3.07692,-3.07693 -3.07693,-3.07692 -9.42307,0 -9.42308,0 0,2.875 0,2.875 2.77585,0.55517 c 1.52672,0.30534 5.35172,1.51893 8.5,2.69685 l 5.72415,2.14168 0,26.72815 0,26.72815 1.2,1.2 1.2,1.2 -20.4,0 -20.4,0 1.2,-1.2 1.2,-1.2 0,-26.72815 0,-26.72815 5.72415,-2.14168 c 3.14828,-1.17792 6.97328,-2.39151 8.5,-2.69685 l 2.77585,-0.55517 0,-2.875 0,-2.875 -1.37756,0 c -0.75765,0 -1.93775,-0.675 -2.62244,-1.5 l -1.24489,-1.5 1.24489,-1.5 1.24489,-1.5 11.98364,0 11.98363,0 1.9665,-2.5 c 1.08157,-1.375 2.66509,-2.5 3.51892,-2.5 l 1.55242,0 -0.57083,-2.85417 -0.57084,-2.85416 1.10345,-1.10346 1.10346,-1.10345 -1.30836,-1.57647 -1.30835,-1.57647 1.30147,-2.43182 1.30147,-2.43182 -1.27318,-1.53409 -1.27318,-1.53409 1.30814,-1.57621 1.30815,-1.57622 -1.4357,-0.94208 -1.4357,-0.94208 1.75,-1.0314 c 0.9625,-0.56726 1.75,-1.90903 1.75,-2.9817 0,-1.07267 0.45,-1.95031 1,-1.95031 0.55,0 1,0.87764 1,1.95031 0,1.07267 0.7875,2.41444 1.75,2.9817 l 1.75,1.0314 -1.4357,0.94208 -1.4357,0.94208 1.30815,1.57622 1.30814,1.57621 -1.27318,1.53409 -1.27318,1.53409 1.30147,2.43182 1.30147,2.43182 -1.30835,1.57647 -1.30836,1.57647 1.10345,1.10346 1.10346,1.10345 -0.57084,2.85416 -0.57083,2.85417 1.55242,0 c 0.85383,0 2.43734,1.125 3.51892,2.5 l 1.9665,2.5 11.98363,0 11.98364,0 1.24489,1.5 1.24489,1.5 -1.24489,1.5 c -0.68469,0.825 -1.86479,1.5 -2.62245,1.5 l -1.37755,0 0,2.875 0,2.875 2.77585,0.55517 c 1.52672,0.30534 5.35172,1.51893 8.5,2.69685 l 5.72415,2.14168 0,26.72815 0,26.72815 1.2,1.2 1.2,1.2 -20.4,0 -20.4,0 1.2,-1.2 1.2,-1.2 0,-26.72815 0,-26.72815 5.72415,-2.14168 c 3.14828,-1.17792 6.97328,-2.39151 8.5,-2.69685 l 2.77585,-0.55517 0,-2.875 0,-2.875 -9.42308,0 -9.42307,0 -3.07693,3.07692 -3.07692,3.07693 0,33.22307 0,33.22308 1.2,1.2 1.2,1.2 11.62569,0 11.62568,0 2.34863,2.5 2.34863,2.5 -34.34863,0 -34.34863,0 2.34863,-2.5 z m 18,-38.87033 0,-26.37033 -7.40737,-2.62967 c -4.07405,-1.44632 -7.94074,-2.62967 -8.59263,-2.62967 -0.65189,0 -4.51858,1.18335 -8.59263,2.62967 l -7.40737,2.62967 0,26.37033 0,26.37033 16,0 16,0 0,-26.37033 z m 60,0 0,-26.37033 -7.40737,-2.62967 c -4.07405,-1.44632 -7.94074,-2.62967 -8.59263,-2.62967 -0.65189,0 -4.51858,1.18335 -8.59263,2.62967 l -7.40737,2.62967 0,26.37033 0,26.37033 16,0 16,0 0,-26.37033 z"
         id="path3226"
         inkscape:connector-curvature="0" />
    </g>
  </g>
</svg>
